<svg xmlns="http://www.w3.org/2000/svg" viewBox="0 0 900 520"><rect width="900" height="520" fill="#E9E1BA"/><rect x="100" y="100" width="700" height="320" rx="24" fill="#fff"/><rect x="145" y="145" width="175" height="225" rx="16" fill="#F3F3F3" stroke="#002F49" stroke-width="8"/><circle cx="232" cy="205" r="28" fill="#F67D22"/><path d="M232 233v72M198 290h68M210 305l-25 38M254 305l25 38" stroke="#002F49" stroke-width="10" stroke-linecap="round"/><rect x="370" y="175" width="170" height="110" rx="16" fill="#d9ebdf"/><path d="M390 215h130M420 185v70M500 185v70" stroke="#2F7D55" stroke-width="8"/><rect x="585" y="170" width="145" height="55" rx="14" fill="#6A2C39"/><rect x="585" y="245" width="145" height="55" rx="14" fill="#F67D22"/><rect x="410" y="330" width="260" height="38" rx="19" fill="#002F49"/><circle cx="735" cy="112" r="35" fill="#FDBE4A"/><path d="M718 112h34M735 95v34" stroke="#002F49" stroke-width="7" stroke-linecap="round"/></svg>